<?xml version="1.0" encoding="UTF-8"?>
<svg id="Layer_1" data-name="Layer 1" xmlns="http://www.w3.org/2000/svg" version="1.1" viewBox="0 0 24 24">
  <defs>
    <style>
      .cls-1 {
        fill: #fff;
        stroke-width: 0px;
      }
    </style>
  </defs>
  <path class="cls-1" d="M12,5.5c1.9,0,3.5,1.6,3.5,3.5s-1.6,3.5-3.5,3.5-3.5-1.6-3.5-3.5,1.6-3.5,3.5-3.5M5,8c.6,0,1.1.1,1.5.4-.2,1.4.3,2.9,1.1,4-.5,1-1.5,1.6-2.7,1.6-1.7,0-3-1.3-3-3s1.3-3,3-3M19,8c1.7,0,3,1.3,3,3s-1.3,3-3,3-2.2-.7-2.7-1.6c.9-1.1,1.3-2.5,1.1-4,.5-.3,1-.4,1.5-.4M5.5,18.2c0-2.1,2.9-3.8,6.5-3.8s6.5,1.7,6.5,3.8v1.8H5.5v-1.8M0,20v-1.5c0-1.4,1.9-2.6,4.4-2.9-.6.7-.9,1.6-.9,2.6v1.8H0M24,20h-3.5v-1.8c0-1-.4-2-1-2.6,2.6.3,4.5,1.5,4.5,2.9v1.5Z"/>
</svg>