<?xml version="1.0" encoding="UTF-8"?>
<svg id="Layer_1" data-name="Layer 1" xmlns="http://www.w3.org/2000/svg" version="1.1" viewBox="0 0 24 24">
  <defs>
    <style>
      .cls-1 {
        fill: #fff;
        stroke-width: 0px;
      }
    </style>
  </defs>
  <path class="cls-1" d="M12,15.5c-1.9,0-3.5-1.6-3.5-3.5s1.6-3.5,3.5-3.5,3.5,1.6,3.5,3.5-1.6,3.5-3.5,3.5M19.4,13c0-.3,0-.6,0-1s0-.7,0-1l2.1-1.6c.2-.1.2-.4.1-.6l-2-3.5c-.1-.2-.4-.3-.6-.2l-2.5,1c-.5-.4-1.1-.7-1.7-1l-.4-2.7c0-.2-.2-.4-.5-.4h-4c-.2,0-.5.2-.5.4l-.4,2.7c-.6.2-1.2.6-1.7,1l-2.5-1c-.2,0-.5,0-.6.2l-2,3.5c-.1.2,0,.5.1.6l2.1,1.6c0,.3,0,.7,0,1s0,.6,0,1l-2.1,1.7c-.2.1-.2.4-.1.6l2,3.5c.1.2.4.3.6.2l2.5-1c.5.4,1.1.7,1.7,1l.4,2.6c0,.2.2.4.5.4h4c.2,0,.5-.2.5-.4l.4-2.6c.6-.3,1.2-.6,1.7-1l2.5,1c.2,0,.5,0,.6-.2l2-3.5c.1-.2,0-.5-.1-.6l-2.1-1.7Z"/>
</svg>